<?xml version="1.0" standalone="no"?>
<!DOCTYPE svg PUBLIC "-//W3C//DTD SVG 20010904//EN"
 "http://www.w3.org/TR/2001/REC-SVG-20010904/DTD/svg10.dtd">
<svg version="1.0" xmlns="http://www.w3.org/2000/svg"
 width="512.000000pt" height="512.000000pt" viewBox="0 0 512.000000 512.000000"
 preserveAspectRatio="xMidYMid meet">
<metadata>
Created by potrace 1.14, written by Peter Selinger 2001-2017
</metadata>
<g transform="translate(0.000000,512.000000) scale(0.100000,-0.100000)"
fill="#000000" stroke="none">
<path d="M124 3686 c-41 -18 -54 -57 -54 -162 l0 -84 85 0 85 0 0 -80 0 -80
-85 0 -85 0 0 -40 0 -40 110 0 110 0 0 -205 0 -205 -110 0 -111 0 3 -107 3
-108 83 -3 82 -3 0 -154 0 -155 -55 0 -55 0 0 -40 0 -40 55 0 55 0 0 -105 0
-105 -80 0 -81 0 5 -32 c3 -18 10 -65 16 -105 l11 -71 115 -7 c96 -6 114 -10
114 -24 0 -9 15 -53 34 -98 l33 -83 -79 0 -79 0 15 -27 c21 -41 96 -116 157
-157 51 -34 58 -36 136 -36 62 0 102 -6 157 -25 117 -39 274 -48 789 -42 473
5 541 11 637 55 l35 16 -67 6 -67 5 66 50 c37 28 81 71 97 97 l31 47 82 0 c74
1 84 3 97 23 15 24 66 168 66 187 0 7 -37 11 -106 11 l-106 0 6 33 c3 17 8 52
11 77 13 97 6 90 94 90 l78 0 7 53 c3 28 6 78 6 110 l0 57 -55 0 -55 0 0 35 0
35 55 0 55 0 0 165 0 165 -80 0 -80 0 0 105 0 105 105 0 105 0 0 210 0 210
-105 0 -105 0 0 30 0 30 80 0 80 0 0 90 0 90 -79 0 -78 0 -5 93 c-6 107 -15
131 -59 146 -49 17 -401 15 -443 -3 -43 -18 -56 -55 -56 -162 l0 -84 80 0 80
0 0 -80 0 -80 -80 0 -80 0 0 -40 0 -40 110 0 110 0 0 -205 0 -205 -110 0 -111
0 3 -107 3 -108 78 -3 77 -3 0 -154 0 -155 -50 0 -50 0 0 -40 0 -40 50 0 50 0
0 -105 0 -105 -85 0 c-82 0 -85 -1 -85 -23 0 -36 -30 -129 -50 -157 l-19 -25
97 -10 97 -11 -57 -18 c-51 -15 -97 -17 -425 -14 -360 3 -369 4 -410 26 -36
19 -57 22 -147 22 -86 0 -108 3 -122 17 -23 24 -50 89 -59 141 l-7 42 80 0 81
0 -6 110 -6 110 102 0 102 0 -3 38 -3 37 -97 3 -98 3 0 154 0 155 265 0 265 0
0 40 0 40 -270 0 -270 0 0 -35 0 -35 -75 0 -75 0 0 105 0 105 105 0 105 0 0
205 0 205 245 0 245 0 0 40 0 40 -270 0 -270 0 0 85 0 85 -80 0 -80 0 0 80 c0
101 -16 143 -60 159 -49 17 -406 14 -446 -3z"/>
<path d="M2645 3691 c-27 -11 -42 -30 -50 -64 l-7 -27 126 0 126 0 0 -100 0
-100 -115 0 -115 0 0 -40 c0 -51 16 -85 47 -99 17 -8 227 -11 704 -11 727 0
730 0 761 -49 12 -19 22 -21 136 -21 l123 0 16 -37 c8 -21 18 -66 21 -100 l5
-63 -155 0 -155 0 -6 -65 c-4 -36 -15 -86 -26 -110 l-20 -45 197 -2 197 -3
-35 -20 c-34 -19 -60 -20 -725 -27 -379 -4 -781 -10 -893 -13 l-203 -6 -15
-34 c-10 -24 -14 -74 -14 -165 l0 -130 140 0 140 0 0 -105 0 -105 -100 0 -100
0 0 -175 0 -175 110 0 110 0 0 -30 0 -30 -110 0 -110 0 0 -205 0 -205 70 0
c42 0 70 -4 70 -10 0 -6 11 -22 25 -35 l24 -25 219 0 c207 0 221 1 246 21 14
11 26 29 26 40 0 17 -7 19 -65 19 l-65 0 0 195 0 195 245 0 245 0 0 40 0 40
-245 0 -245 0 0 170 0 170 105 0 105 0 0 55 0 55 253 0 253 0 27 -55 26 -54
-98 -3 -99 -3 98 -170 98 -170 111 -3 111 -3 15 -29 16 -30 -107 0 c-63 0
-104 -4 -102 -10 2 -5 53 -97 113 -204 l110 -196 71 0 c66 0 72 -2 82 -25 7
-14 23 -30 38 -35 14 -6 132 -10 264 -10 212 0 240 2 258 18 11 9 23 27 27 40
6 21 4 22 -63 22 -68 0 -70 0 -75 29 -3 15 -47 96 -96 178 -50 83 -93 157 -97
167 -5 14 6 16 100 16 l107 0 -23 40 -23 39 -110 3 -110 3 -97 165 -98 165 99
5 100 5 -34 55 c-19 30 -35 57 -35 60 0 4 28 12 62 19 62 13 151 51 163 71 4
7 -39 10 -126 10 l-132 0 48 51 c46 49 106 163 120 227 l7 32 184 0 184 0 10
26 c21 55 26 54 -189 54 l-200 0 5 93 c3 50 7 98 10 105 2 9 43 12 160 12
l156 0 -6 88 c-11 130 1 119 -137 127 -75 5 -122 12 -124 19 -2 6 -10 40 -19
76 -8 36 -18 75 -22 88 -6 22 -6 22 105 22 61 0 111 3 111 6 0 24 -72 133
-113 170 l-49 44 -128 0 c-117 0 -131 2 -171 24 -109 61 -89 60 -964 63 -440
1 -809 -2 -820 -6z"/>
<path d="M3142 3128 l3 -23 330 0 330 0 3 23 3 22 -336 0 -336 0 3 -22z"/>
<path d="M1140 2940 l0 -50 330 0 330 0 0 50 0 50 -330 0 -330 0 0 -50z"/>
<path d="M2800 2845 l0 -45 365 0 365 0 0 45 0 45 -365 0 -365 0 0 -45z"/>
<path d="M1200 2075 l0 -35 300 0 300 0 0 35 0 35 -300 0 -300 0 0 -35z"/>
<path d="M3300 1545 l0 -25 330 0 330 0 0 25 0 25 -330 0 -330 0 0 -25z"/>
</g>
</svg>
